<svg width="25" height="24" viewBox="0 0 25 24" fill="none" xmlns="http://www.w3.org/2000/svg">
<path d="M21.6912 10.7418C22.2549 11.4993 22.2549 12.5007 21.6912 13.2582C20.3821 15.0177 17.4351 18 12.5 18C7.56486 18 4.61793 15.0177 3.30878 13.2582C2.7451 12.5007 2.7451 11.4993 3.30878 10.7418C4.61793 8.98232 7.56486 6 12.5 6C17.4351 6 20.3821 8.98232 21.6912 10.7418Z" stroke="#00243C" stroke-width="2" stroke-linecap="round"/>
<path d="M12.5 15C14.1569 15 15.5 13.6569 15.5 12C15.5 10.3431 14.1569 9 12.5 9C10.8431 9 9.5 10.3431 9.5 12C9.5 13.6569 10.8431 15 12.5 15Z" stroke="#00243C" stroke-width="2" stroke-linecap="round"/>
</svg>
